<svg width="142" height="122" viewBox="0 0 142 122" fill="none" xmlns="http://www.w3.org/2000/svg">
<path d="M71.7228 0.271973L98.3716 14.1517L118.843 24.8744C120.108 25.5368 121.36 26.2438 122.559 27.0203C122.629 28.8334 122.631 31.4794 122.569 33.2917L116.025 36.853C117.328 37.5154 120.842 39.3368 121.817 40.1251C121.984 41.5451 121.875 44.0271 121.863 45.5295L121.853 59.0557C120.85 59.745 117.533 61.4518 116.272 62.1107C117.495 62.8033 121.121 64.661 121.858 65.4666L121.845 80.482C120.724 81.2295 117.85 82.7009 116.505 83.4312L81.3854 102.208C78.8931 103.539 76.3991 104.868 73.9036 106.193C71.6427 107.394 70.6508 107.496 68.3683 106.26C57.1618 100.193 46.0262 93.9959 34.864 87.8488L20.1822 79.7663C19.984 78.2453 20.0391 75.8427 20.0391 74.267L20.0267 68.1799C21.0392 67.4971 24.6318 65.6629 25.8656 64.9665C24.6503 64.2647 21.2624 62.5487 20.2533 61.7588C20.0154 59.8291 20.1428 56.6556 20.1614 54.6515C20.2017 50.2991 19.9513 45.8799 20.2548 41.5414C21.3029 40.6897 24.722 39.0452 26.0099 38.2947C24.7545 37.5629 21.2872 35.7183 20.2594 35.0165L20.2703 27.3587C21.6766 26.3956 23.3404 25.6322 24.8567 24.8449L52.2542 10.5944C58.4673 7.36589 64.572 3.87493 70.8617 0.805373L71.7228 0.271973Z" fill="#02361B"/>
<path d="M70.814 3.896L92.9329 15.4502L117.999 28.6116L70.921 53.7562L24.8301 28.9112L70.814 3.896Z" fill="#FCFCF4"/>
<path d="M117.998 28.6118C118.042 29.3344 118.049 30.1455 118.047 30.8728C118.036 35.6497 118.033 40.4267 118.037 45.2037L70.9546 70.7074L70.9209 53.7563L117.998 28.6118Z" fill="#DDE392"/>
<path d="M24.8301 28.9116L70.9209 53.7566L70.9546 70.7077L24.8673 45.4811L24.8301 28.9116Z" fill="#E8ECB6"/>
<path d="M45.3018 51.9717L70.9998 66.0955L96.7599 52.0457V83.6019L71.1019 97.4708L45.3018 83.4111V51.9717Z" fill="#EFF2CD"/>
<path d="M96.7599 52.0459V83.6021L71.1019 97.471V66.0957L96.7599 52.0459Z" fill="#DDE392"/>
<path d="M60.0634 58.917L55.9199 61.2088L71.1211 69.5654L86.0739 61.413L81.8854 59.1092L71.1196 64.9816L60.0634 58.917Z" fill="#02361B"/>
<path d="M55.9199 67.3076L60.0634 65.0159L71.1196 71.0804L81.8854 65.208L86.0739 67.5118L71.1211 75.6642L55.9199 67.3076Z" fill="#02361B"/>
<path d="M61.5039 42.3654C61.5039 36.3243 66.3988 31.4294 72.4399 31.4294C78.481 31.4294 83.3759 36.3243 83.3759 42.3654C83.3759 48.4065 78.481 53.3014 72.4399 53.3014C66.3988 53.3014 61.5039 48.4065 61.5039 42.3654Z" fill="#02361B"/>
<path d="M65.6582 42.3655C65.6582 38.6184 68.6955 35.5811 72.4426 35.5811C76.1897 35.5811 79.227 38.6184 79.227 42.3655C79.227 46.1126 76.1897 49.1499 72.4426 49.1499C68.6955 49.1499 65.6582 46.1126 65.6582 42.3655Z" fill="#FCFCF4"/>
<path d="M70.9878 45.2464L68.0283 42.3381C67.653 41.9637 67.1843 41.7764 66.622 41.7764C66.0597 41.7764 65.5731 41.9811 65.1622 42.3905C64.7868 42.7658 64.5991 43.2432 64.5991 43.8228C64.5991 44.4024 64.7868 44.8798 65.1622 45.2552L69.5481 49.6411C69.9566 50.0496 70.4332 50.2538 70.9779 50.2538C71.5227 50.2538 71.9997 50.0496 72.4083 49.6411L81.0791 40.9703C81.4876 40.5617 81.683 40.0852 81.6654 39.5404C81.6474 38.9957 81.4516 38.5191 81.0791 38.1106C80.6705 37.702 80.1854 37.4896 79.6231 37.4722C79.0608 37.4546 78.5741 37.6504 78.1632 38.0608L70.9878 45.2464Z" fill="#02361B"/>
<path d="M24.7832 49.9458L45.3029 61.1028V83.411L24.8114 72.1729L24.7832 49.9458Z" fill="#02361B"/>
<path d="M96.7588 61.1028L117.899 49.7231L117.928 72.1702L96.7588 83.6028V61.1028Z" fill="#E4E9A8"/>
</svg>
