<svg xmlns="http://www.w3.org/2000/svg" width="42" height="30" fill="none" viewBox="0 0 42 30"><path fill="#000" d="M0 12.738v4.516h.786v-4.516zm2.663.942c0-.163.093-.257.272-.257.14 0 .218.063.28.195l1.317 2.88c.186.515.475.834 1.105.834.693 0 1.036-.397 1.036-.989v-3.605h-.794v3.574c0 .156-.102.257-.265.257-.148 0-.234-.078-.288-.187l-1.316-2.88c-.187-.515-.467-.834-1.098-.834-.7 0-1.035.397-1.035.981v3.613h.786zm6.72-.942c-1.2 0-1.667.654-1.667 1.557v2.96h.787V15.47h2.717v-.747H8.503v-.429c0-.42.21-.763.926-.763h1.822v-.786H9.383zm2.81 0v4.516h.787v-4.516zm2.663.942c0-.163.094-.257.273-.257.14 0 .218.063.28.195l1.316 2.88c.187.515.475.834 1.106.834.693 0 1.035-.397 1.035-.989v-3.605h-.794v3.574c0 .156-.101.257-.265.257-.148 0-.233-.078-.288-.187l-1.316-2.88c-.187-.515-.467-.834-1.098-.834-.7 0-1.035.397-1.035.981v3.613h.786zm5.092-.942v4.516h.787v-4.516zm3.753 0c-1.308 0-2.04.748-2.04 2.266 0 1.51.725 2.25 2.04 2.25h.616c1.316 0 2.04-.732 2.04-2.25s-.732-2.266-2.04-2.266zm.616.787c.872 0 1.245.443 1.245 1.471 0 1.036-.373 1.464-1.245 1.464H23.7c-.872 0-1.253-.428-1.253-1.456 0-1.036.381-1.48 1.253-1.48zm3.753.155c0-.163.093-.257.272-.257.14 0 .218.063.28.195l1.316 2.88c.187.515.475.834 1.106.834.693 0 1.036-.397 1.036-.989v-3.605h-.795v3.574c0 .156-.1.257-.264.257-.148 0-.234-.078-.288-.187l-1.316-2.88c-.187-.515-.468-.834-1.098-.834-.701 0-1.036.397-1.036.981v3.613h.787z"/><path fill="#f26113" fill-rule="evenodd" d="M26.894 29.05c-6.868 0-12.583-4.913-13.82-11.414h-.928c1.254 7.008 7.382 12.326 14.748 12.326 8.277 0 14.98-6.712 14.98-14.981C41.875 6.704 35.164 0 26.895 0c-7.358 0-13.47 5.302-14.74 12.287h.927C14.342 5.809 20.04.91 26.894.91c7.77 0 14.07 6.3 14.07 14.07s-6.3 14.07-14.07 14.07" clip-rule="evenodd"/></svg>