<svg xmlns="http://www.w3.org/2000/svg" width="34" height="24" fill="none" viewBox="0 0 34 24"><g style="mix-blend-mode:luminosity"><path fill="#000" d="M0 10.204v3.617h.63v-3.617zm2.133.754c0-.13.075-.206.218-.206.113 0 .175.05.225.156l1.054 2.308c.15.412.38.667.886.667.555 0 .83-.318.83-.792v-2.887h-.637v2.862c0 .125-.081.206-.212.206-.119 0-.187-.062-.23-.15l-1.055-2.307c-.15-.412-.374-.667-.88-.667-.56 0-.829.318-.829.785v2.894h.63zm5.383-.754c-.96 0-1.335.523-1.335 1.247v2.37h.63v-1.428h2.177v-.599H6.81v-.343c0-.337.168-.611.742-.611h1.46v-.63H7.516zm2.251 0v3.617h.63v-3.617zm2.133.754c0-.13.075-.206.219-.206.112 0 .174.05.224.156l1.054 2.308c.15.412.38.667.886.667.555 0 .83-.318.83-.792v-2.887h-.637v2.862c0 .125-.08.206-.212.206-.118 0-.187-.062-.23-.15l-1.055-2.307c-.15-.412-.374-.667-.88-.667-.56 0-.829.318-.829.785v2.894h.63zm4.08-.754v3.617h.63v-3.617zm3.005 0c-1.047 0-1.634.598-1.634 1.815 0 1.21.58 1.802 1.634 1.802h.493c1.054 0 1.634-.586 1.634-1.802s-.586-1.815-1.634-1.815zm.493.63c.699 0 .998.355.998 1.178 0 .83-.3 1.173-.998 1.173h-.493c-.698 0-1.004-.343-1.004-1.166 0-.83.306-1.185 1.004-1.185zm3.006.124c0-.13.075-.206.219-.206.112 0 .174.05.224.156l1.054 2.308c.15.412.38.667.886.667.555 0 .83-.318.83-.792v-2.887h-.637v2.862c0 .125-.08.206-.212.206-.118 0-.187-.062-.23-.15l-1.054-2.307c-.15-.412-.375-.667-.88-.667-.561 0-.83.318-.83.785v2.894h.63z"/><path fill="#f26113" fill-rule="evenodd" d="M21.543 23.27a11.27 11.27 0 0 1-11.07-9.143H9.73C10.734 19.74 15.643 24 21.543 24c6.63 0 12-5.376 12-12 0-6.63-5.376-12-12-12-5.894 0-10.79 4.247-11.807 9.842h.742C11.488 4.652 16.054.73 21.543.73c6.224 0 11.27 5.045 11.27 11.27s-5.046 11.27-11.27 11.27" clip-rule="evenodd"/></g></svg>